<?xml version="1.0" encoding="utf-8"?>
<!-- Generated by IcoMoon.io -->
<!DOCTYPE svg PUBLIC "-//W3C//DTD SVG 1.1//EN" "http://www.w3.org/Graphics/SVG/1.1/DTD/svg11.dtd">
<svg version="1.1" xmlns="http://www.w3.org/2000/svg" xmlns:xlink="http://www.w3.org/1999/xlink" width="32" height="32" viewBox="0 0 32 32">
	<path d="M30.063 21.625q-0.85 1.875-2.813 1.875h-4.688q-0.732 0-1.26-0.483t-0.586-1.187q-2.080 1.67-4.717 1.67-3.105 0-5.303-2.197t-2.197-5.303 2.197-5.303 5.303-2.197q2.9 0 5.068 1.963 0.293-0.088 0.557-0.088 0.791 0 1.333 0.557t0.542 1.318v7.5h3.076q0.674-1.875 0.674-3.75 0-3.047-1.509-5.64t-4.102-4.102-5.64-1.509-5.64 1.509-4.102 4.102-1.509 5.64 1.509 5.64 4.102 4.102 5.64 1.509h5.625q0.791 0 1.333 0.542t0.542 1.333-0.542 1.333-1.333 0.542h-5.625q-3.047 0-5.83-1.187t-4.79-3.193-3.193-4.79-1.187-5.83 1.187-5.83 3.193-4.79 4.79-3.193 5.83-1.187 5.83 1.187 4.79 3.193 3.193 4.79 1.187 5.83q0 1.816-0.19 3.076t-0.747 2.549zM16 12.25q-1.553 0-2.651 1.099t-1.099 2.651 1.099 2.651 2.651 1.099 2.651-1.099 1.099-2.651-1.099-2.651-2.651-1.099z" />
</svg>
