<?xml version="1.0" encoding="utf-8"?>
<!-- Generated by IcoMoon.io -->
<!DOCTYPE svg PUBLIC "-//W3C//DTD SVG 1.1//EN" "http://www.w3.org/Graphics/SVG/1.1/DTD/svg11.dtd">
<svg version="1.1" xmlns="http://www.w3.org/2000/svg" xmlns:xlink="http://www.w3.org/1999/xlink" width="32" height="32" viewBox="0 0 32 32">
	<path d="M6.333 7l12.869 0.019 1.571-2.667-17.107-0.019v13.333l2.667-2.667v-8zM6.333 25.667c-0.052-0.091 0.031-3.204 0.031-4.008-1.412-2.088-2.697-3.992-2.697-3.992v10.667l7.651 0.019c0 0-0.779-1.153-1.789-2.648-1.043-0.001-2.664-0.037-3.195-0.037zM26.333 25.667l-7.921 0.019-1.571 2.667 12.159-0.019v-18.667l-2.667 2.667v13.333zM25.019 1l-11 18.7-3.052-5.339-4.631 2.645 7.615 13.327 15.664-26.631-4.596-2.703z" />
</svg>
