<?xml version="1.0" encoding="utf-8"?>
<!-- Generated by IcoMoon.io -->
<!DOCTYPE svg PUBLIC "-//W3C//DTD SVG 1.1//EN" "http://www.w3.org/Graphics/SVG/1.1/DTD/svg11.dtd">
<svg version="1.1" xmlns="http://www.w3.org/2000/svg" xmlns:xlink="http://www.w3.org/1999/xlink" width="27" height="32" viewBox="0 0 27 32">
	<path d="M12.804 24.911l8.107-8.107q0.339-0.339 0.339-0.804t-0.339-0.804l-8.107-8.107q-0.339-0.339-0.804-0.339t-0.804 0.339l-1.821 1.821q-0.339 0.339-0.339 0.804t0.339 0.804l5.482 5.482-5.482 5.482q-0.339 0.339-0.339 0.804t0.339 0.804l1.821 1.821q0.339 0.339 0.804 0.339t0.804-0.339zM27.429 16q0 3.732-1.839 6.884t-4.991 4.991-6.884 1.839-6.884-1.839-4.991-4.991-1.839-6.884 1.839-6.884 4.991-4.991 6.884-1.839 6.884 1.839 4.991 4.991 1.839 6.884z" />
</svg>
