<?xml version="1.0" encoding="utf-8"?>
<!-- Generated by IcoMoon.io -->
<!DOCTYPE svg PUBLIC "-//W3C//DTD SVG 1.1//EN" "http://www.w3.org/Graphics/SVG/1.1/DTD/svg11.dtd">
<svg version="1.1" xmlns="http://www.w3.org/2000/svg" xmlns:xlink="http://www.w3.org/1999/xlink" width="32" height="32" viewBox="0 0 32 32">
	<path d="M24 27q-3.031 0-8-4.781-4.969 4.781-8 4.781-3.313 0-5.656-2.344t-2.344-5.656 2.344-5.656 5.656-2.344q3.063 0 8 4.781 4.969-4.781 8-4.781 3.313 0 5.656 2.344t2.344 5.656-2.344 5.656-5.656 2.344zM8 15q-1.781 0-2.891 1.156t-1.109 2.844 1.109 2.844 2.891 1.156q0.688 0 1.453-0.406t1.375-1 1.109-1.188 0.781-1l0.281-0.406q-0.094-0.156-0.281-0.422t-0.766-0.969-1.141-1.219-1.344-0.953-1.469-0.438zM24 15q-0.688 0-1.453 0.406t-1.375 1-1.109 1.188-0.781 1l-0.281 0.406q0.094 0.156 0.281 0.438t0.766 0.969 1.141 1.203 1.344 0.953 1.469 0.438q1.781 0 2.891-1.156t1.109-2.844-1.109-2.844-2.891-1.156z" />
</svg>
