<?xml version="1.0" encoding="utf-8"?>
<!-- Generated by IcoMoon.io -->
<!DOCTYPE svg PUBLIC "-//W3C//DTD SVG 1.1//EN" "http://www.w3.org/Graphics/SVG/1.1/DTD/svg11.dtd">
<svg version="1.1" xmlns="http://www.w3.org/2000/svg" xmlns:xlink="http://www.w3.org/1999/xlink" width="27" height="32" viewBox="0 0 27 32">
	<path d="M16 24.571v-3.429q0-0.25-0.161-0.411t-0.411-0.161h-3.429q-0.25 0-0.411 0.161t-0.161 0.411v3.429q0 0.25 0.161 0.411t0.411 0.161h3.429q0.25 0 0.411-0.161t0.161-0.411zM20.571 12.571q0-1.571-0.991-2.911t-2.473-2.071-3.036-0.732q-4.339 0-6.625 3.804-0.268 0.429 0.143 0.75l2.357 1.786q0.125 0.107 0.339 0.107 0.286 0 0.446-0.214 0.946-1.214 1.536-1.643 0.607-0.429 1.536-0.429 0.857 0 1.527 0.464t0.67 1.054q0 0.679-0.357 1.089t-1.214 0.804q-1.125 0.5-2.063 1.545t-0.938 2.241v0.643q0 0.25 0.161 0.411t0.411 0.161h3.429q0.25 0 0.411-0.161t0.161-0.411q0-0.339 0.384-0.884t0.973-0.884q0.571-0.321 0.875-0.509t0.821-0.625 0.795-0.857 0.5-1.080 0.223-1.446zM27.429 16q0 3.732-1.839 6.884t-4.991 4.991-6.884 1.839-6.884-1.839-4.991-4.991-1.839-6.884 1.839-6.884 4.991-4.991 6.884-1.839 6.884 1.839 4.991 4.991 1.839 6.884z" />
</svg>
