<?xml version="1.0" encoding="utf-8"?>
<!-- Generated by IcoMoon.io -->
<!DOCTYPE svg PUBLIC "-//W3C//DTD SVG 1.1//EN" "http://www.w3.org/Graphics/SVG/1.1/DTD/svg11.dtd">
<svg version="1.1" xmlns="http://www.w3.org/2000/svg" xmlns:xlink="http://www.w3.org/1999/xlink" width="730" height="32" viewBox="0 0 730 32">
<g transform="translate(0 0)">
	<path d="M24 27q-3.031 0-8-4.781-4.969 4.781-8 4.781-3.313 0-5.656-2.344t-2.344-5.656 2.344-5.656 5.656-2.344q3.063 0 8 4.781 4.969-4.781 8-4.781 3.313 0 5.656 2.344t2.344 5.656-2.344 5.656-5.656 2.344zM8 15q-1.781 0-2.891 1.156t-1.109 2.844 1.109 2.844 2.891 1.156q0.688 0 1.453-0.406t1.375-1 1.109-1.188 0.781-1l0.281-0.406q-0.094-0.156-0.281-0.422t-0.766-0.969-1.141-1.219-1.344-0.953-1.469-0.438zM24 15q-0.688 0-1.453 0.406t-1.375 1-1.109 1.188-0.781 1l-0.281 0.406q0.094 0.156 0.281 0.438t0.766 0.969 1.141 1.203 1.344 0.953 1.469 0.438q1.781 0 2.891-1.156t1.109-2.844-1.109-2.844-2.891-1.156z" />
</g>
<g transform="translate(48 0)">
	<path d="M16 0c-8.837 0-16 7.163-16 16s7.163 16 16 16 16-7.163 16-16-7.163-16-16-16zM25.502 25.502c-1.235 1.235-2.672 2.204-4.272 2.881-0.406 0.172-0.819 0.323-1.238 0.453v-2.398c0-1.26-0.432-2.188-1.297-2.781 0.542-0.052 1.039-0.125 1.492-0.219s0.932-0.229 1.438-0.406 0.958-0.388 1.359-0.633 0.786-0.563 1.156-0.953 0.68-0.833 0.93-1.328 0.448-1.089 0.594-1.781 0.219-1.456 0.219-2.289c0-1.615-0.526-2.99-1.578-4.125 0.479-1.25 0.427-2.609-0.156-4.078l-0.391-0.047c-0.271-0.031-0.758 0.083-1.461 0.344s-1.492 0.688-2.367 1.281c-1.24-0.344-2.526-0.516-3.859-0.516-1.344 0-2.625 0.172-3.844 0.516-0.552-0.375-1.075-0.685-1.57-0.93-0.495-0.245-0.891-0.411-1.188-0.5s-0.573-0.143-0.828-0.164-0.419-0.026-0.492-0.016-0.125 0.021-0.156 0.031c-0.583 1.479-0.635 2.839-0.156 4.078-1.052 1.135-1.578 2.51-1.578 4.125 0 0.833 0.073 1.596 0.219 2.289s0.344 1.286 0.594 1.781 0.56 0.938 0.93 1.328 0.755 0.708 1.156 0.953 0.854 0.456 1.359 0.633 0.984 0.313 1.438 0.406 0.95 0.167 1.492 0.219c-0.854 0.583-1.281 1.51-1.281 2.781v2.445c-0.472-0.14-0.937-0.306-1.394-0.5-1.6-0.677-3.037-1.646-4.272-2.881-1.235-1.235-2.204-2.672-2.881-4.272-0.7-1.655-1.055-3.414-1.055-5.23s0.355-3.575 1.055-5.23c0.677-1.6 1.646-3.037 2.881-4.272s2.672-2.204 4.272-2.881c1.655-0.7 3.415-1.055 5.23-1.055s3.575 0.355 5.23 1.055c1.6 0.677 3.037 1.646 4.272 2.881 1.235 1.235 2.204 2.672 2.881 4.272 0.7 1.655 1.055 3.415 1.055 5.23s-0.355 3.575-1.055 5.23c-0.677 1.6-1.646 3.037-2.881 4.272z" />
</g>
<g transform="translate(96 0)">
	<path d="M26.667 0h-21.333c-2.934 0-5.334 2.4-5.334 5.334v21.332c0 2.936 2.4 5.334 5.334 5.334h21.333c2.934 0 5.333-2.398 5.333-5.334v-21.332c0-2.934-2.399-5.334-5.333-5.334zM26.189 10.682c0.010 0.229 0.015 0.46 0.015 0.692 0 7.069-5.288 15.221-14.958 15.221-2.969 0-5.732-0.886-8.059-2.404 0.411 0.050 0.83 0.075 1.254 0.075 2.463 0 4.73-0.855 6.529-2.29-2.3-0.043-4.242-1.59-4.911-3.715 0.321 0.063 0.65 0.096 0.989 0.096 0.479 0 0.944-0.066 1.385-0.188-2.405-0.492-4.217-2.654-4.217-5.245 0-0.023 0-0.045 0-0.067 0.709 0.401 1.519 0.641 2.381 0.669-1.411-0.959-2.339-2.597-2.339-4.453 0-0.98 0.259-1.899 0.712-2.689 2.593 3.237 6.467 5.366 10.836 5.589-0.090-0.392-0.136-0.8-0.136-1.219 0-2.954 2.354-5.349 5.257-5.349 1.512 0 2.879 0.65 3.838 1.689 1.198-0.24 2.323-0.685 3.338-1.298-0.393 1.249-1.226 2.298-2.311 2.96 1.063-0.129 2.077-0.417 3.019-0.842-0.705 1.073-1.596 2.015-2.623 2.769z" />
</g>
<g transform="translate(144 0)">
	<path d="M0.025 27.177c-0.008-0.079-0.014-0.158-0.018-0.238 0.004 0.080 0.011 0.159 0.018 0.238zM7.372 17.661c2.875 0.086 4.804-2.897 4.308-6.662-0.497-3.765-3.231-6.787-6.106-6.873-2.876-0.085-4.804 2.796-4.308 6.562 0.496 3.765 3.23 6.887 6.106 6.973zM32 8v-2.666c0-2.934-2.399-5.334-5.333-5.334h-21.333c-2.884 0-5.25 2.32-5.33 5.185 1.824-1.606 4.354-2.947 6.965-2.947 2.791 0 11.164 0 11.164 0l-2.498 2.113h-3.54c2.348 0.9 3.599 3.629 3.599 6.429 0 2.351-1.307 4.374-3.153 5.812-1.801 1.403-2.143 1.991-2.143 3.184 0 1.018 1.93 2.75 2.938 3.462 2.949 2.079 3.904 4.010 3.904 7.233 0 0.513-0.064 1.026-0.19 1.53h9.617c2.934 0 5.333-2.398 5.333-5.334v-16.666h-6v6h-2v-6h-6v-2h6v-6h2v6h6zM5.809 23.936c0.675 0 1.294-0.018 1.936-0.018-0.848-0.823-1.52-1.831-1.52-3.074 0-0.738 0.236-1.448 0.567-2.079-0.337 0.024-0.681 0.031-1.035 0.031-2.324 0-4.297-0.752-5.756-1.995v2.101l0 6.304c1.67-0.793 3.653-1.269 5.809-1.269zM0.107 27.727c-0.035-0.171-0.061-0.344-0.079-0.52 0.018 0.176 0.045 0.349 0.079 0.52zM14.233 29.776c-0.471-1.838-2.139-2.749-4.465-4.361-0.846-0.273-1.778-0.434-2.778-0.444-2.801-0.030-5.41 1.092-6.882 2.762 0.498 2.428 2.657 4.267 5.226 4.267h8.951c0.057-0.348 0.084-0.707 0.084-1.076 0-0.392-0.048-0.775-0.137-1.148z" />
</g>
<g transform="translate(192 0)">
	<path d="M26.667 0h-21.333c-2.934 0-5.334 2.4-5.334 5.334v21.332c0 2.935 2.4 5.334 5.334 5.334h21.333c2.934 0 5.333-2.398 5.333-5.334v-21.332c0-2.934-2.399-5.334-5.333-5.334zM8.717 25.977c-1.499 0-2.717-1.209-2.717-2.707 0-1.49 1.218-2.713 2.717-2.713 1.505 0 2.721 1.223 2.721 2.713-0 1.498-1.216 2.707-2.721 2.707zM15.546 26c0-2.557-0.994-4.963-2.796-6.764-1.804-1.805-4.199-2.801-6.747-2.801v-3.912c7.427 0 13.473 6.045 13.473 13.477l-3.93 0zM22.488 26c0-9.096-7.396-16.498-16.48-16.498v-3.914c11.25 0 20.405 9.16 20.405 20.412l-3.924-0z" />
</g>
<g transform="translate(240 0)">
	<path d="M6.333 7l12.869 0.019 1.571-2.667-17.107-0.019v13.333l2.667-2.667v-8zM6.333 25.667c-0.052-0.091 0.031-3.204 0.031-4.008-1.412-2.088-2.697-3.992-2.697-3.992v10.667l7.651 0.019c0 0-0.779-1.153-1.789-2.648-1.043-0.001-2.664-0.037-3.195-0.037zM26.333 25.667l-7.921 0.019-1.571 2.667 12.159-0.019v-18.667l-2.667 2.667v13.333zM25.019 1l-11 18.7-3.052-5.339-4.631 2.645 7.615 13.327 15.664-26.631-4.596-2.703z" />
</g>
<g transform="translate(288 0)">
	<path d="M16 24.571v-3.429q0-0.25-0.161-0.411t-0.411-0.161h-3.429q-0.25 0-0.411 0.161t-0.161 0.411v3.429q0 0.25 0.161 0.411t0.411 0.161h3.429q0.25 0 0.411-0.161t0.161-0.411zM20.571 12.571q0-1.571-0.991-2.911t-2.473-2.071-3.036-0.732q-4.339 0-6.625 3.804-0.268 0.429 0.143 0.75l2.357 1.786q0.125 0.107 0.339 0.107 0.286 0 0.446-0.214 0.946-1.214 1.536-1.643 0.607-0.429 1.536-0.429 0.857 0 1.527 0.464t0.67 1.054q0 0.679-0.357 1.089t-1.214 0.804q-1.125 0.5-2.063 1.545t-0.938 2.241v0.643q0 0.25 0.161 0.411t0.411 0.161h3.429q0.25 0 0.411-0.161t0.161-0.411q0-0.339 0.384-0.884t0.973-0.884q0.571-0.321 0.875-0.509t0.821-0.625 0.795-0.857 0.5-1.080 0.223-1.446zM27.429 16q0 3.732-1.839 6.884t-4.991 4.991-6.884 1.839-6.884-1.839-4.991-4.991-1.839-6.884 1.839-6.884 4.991-4.991 6.884-1.839 6.884 1.839 4.991 4.991 1.839 6.884z" />
</g>
<g transform="translate(331 0)">
	<path d="M16 18.031l-14.031-14.031h28.063zM0.219 26.906q-0.219-0.438-0.219-0.906v-20q0-0.469 0.219-0.906l10.938 10.906zM14.781 19.656q0.188 0.156 0.484 0.25t0.516 0.094h0.219q0.813 0.031 1.219-0.344l2.219-2.25 10.594 10.594h-28.063l10.594-10.594zM31.781 5.094q0.219 0.438 0.219 0.906v20q0 0.469-0.219 0.906l-10.938-10.906z" />
</g>
<g transform="translate(379 0)">
	<path d="M22.137 19.625l9.863-7.625h-12l-4-12-4 12h-12l9.875 7.594-3.875 12.406 10.016-7.68 9.992 7.68z" />
</g>
<g transform="translate(427 0)">
	<path d="M16.411 23.268v-2.804q0-0.893-0.518-0.893-0.304 0-0.589 0.286v4q0.286 0.286 0.589 0.286 0.518 0 0.518-0.875zM19.696 21.089h1.179v-0.607q0-0.911-0.589-0.911t-0.589 0.911v0.607zM9.5 16.339v1.25h-1.429v7.554h-1.321v-7.554h-1.393v-1.25h4.143zM13.089 18.589v6.554h-1.196v-0.714q-0.696 0.804-1.357 0.804-0.589 0-0.75-0.5-0.107-0.286-0.107-0.964v-5.179h1.179v4.821q0 0.429 0.018 0.464 0.018 0.268 0.268 0.268 0.357 0 0.75-0.554v-5h1.196zM17.589 20.571v2.607q0 0.929-0.125 1.304-0.214 0.75-0.946 0.75-0.625 0-1.214-0.732v0.643h-1.196v-8.804h1.196v2.875q0.571-0.714 1.214-0.714 0.732 0 0.946 0.75 0.125 0.375 0.125 1.321zM22.071 22.875v0.161q0 0.518-0.036 0.768-0.054 0.393-0.268 0.714-0.482 0.714-1.429 0.714-0.929 0-1.446-0.679-0.375-0.482-0.375-1.536v-2.304q0-1.054 0.357-1.536 0.518-0.679 1.429-0.679t1.393 0.679q0.375 0.5 0.375 1.536v1.357h-2.375v1.161q0 0.911 0.607 0.911 0.429 0 0.536-0.464 0-0.018 0.009-0.125t0.009-0.295v-0.384h1.214zM14.018 8.161v2.786q0 0.911-0.571 0.911t-0.571-0.911v-2.786q0-0.929 0.571-0.929t0.571 0.929zM23.536 20.893q0-3.161-0.339-4.643-0.179-0.786-0.768-1.313t-1.357-0.616q-2.429-0.268-7.357-0.268-4.911 0-7.339 0.268-0.786 0.089-1.366 0.616t-0.759 1.313q-0.357 1.554-0.357 4.643 0 3.143 0.357 4.643 0.179 0.768 0.759 1.304t1.348 0.625q2.446 0.268 7.357 0.268t7.357-0.268q0.768-0.089 1.348-0.625t0.759-1.304q0.357-1.5 0.357-4.643zM10.054 9.268l1.607-5.286h-1.339l-0.911 3.482-0.946-3.482h-1.393l0.429 1.232t0.411 1.232q0.625 1.839 0.821 2.821v3.589h1.321v-3.589zM15.214 10.714v-2.321q0-1.036-0.375-1.554-0.518-0.679-1.393-0.679-0.911 0-1.393 0.679-0.375 0.518-0.375 1.554v2.321q0 1.036 0.375 1.554 0.482 0.679 1.393 0.679 0.875 0 1.393-0.679 0.375-0.482 0.375-1.554zM18.446 12.857h1.196v-6.607h-1.196v5.054q-0.393 0.554-0.75 0.554-0.268 0-0.286-0.286-0.018-0.036-0.018-0.464v-4.857h-1.196v5.232q0 0.661 0.107 0.982 0.196 0.482 0.768 0.482 0.643 0 1.375-0.804v0.714zM27.429 7.429v17.143q0 2.125-1.509 3.634t-3.634 1.509h-17.143q-2.125 0-3.634-1.509t-1.509-3.634v-17.143q0-2.125 1.509-3.634t3.634-1.509h17.143q2.125 0 3.634 1.509t1.509 3.634z" />
</g>
<g transform="translate(470 0)">
	<path d="M29.794 2.333l-0.126-0.126c-2.942-2.942-7.756-2.942-10.698 0l-6.816 6.817c-2.942 2.942-2.942 7.756 0 10.697l0.126 0.126c0.245 0.245 0.505 0.466 0.773 0.671l2.495-2.495c-0.291-0.172-0.566-0.377-0.816-0.627l-0.126-0.126c-1.597-1.597-1.597-4.196 0-5.793l6.816-6.816c1.597-1.597 4.196-1.597 5.793 0l0.126 0.126c1.597 1.597 1.597 4.197 0 5.793l-3.084 3.084c0.535 1.322 0.789 2.731 0.767 4.137l4.769-4.769c2.942-2.942 2.942-7.756-0-10.697zM19.72 12.154c-0.245-0.245-0.505-0.466-0.773-0.67l-2.495 2.495c0.291 0.172 0.566 0.377 0.816 0.627l0.126 0.126c1.597 1.597 1.597 4.196 0 5.793l-6.817 6.817c-1.597 1.597-4.196 1.597-5.793 0l-0.126-0.126c-1.597-1.598-1.597-4.196 0-5.793l3.084-3.084c-0.535-1.322-0.789-2.731-0.767-4.137l-4.769 4.769c-2.942 2.942-2.942 7.756 0 10.698l0.126 0.126c2.942 2.942 7.756 2.942 10.698 0l6.816-6.816c2.942-2.942 2.942-7.756 0-10.698l-0.126-0.126z" />
</g>
<g transform="translate(518 0)">
	<path d="M32 19l-6-6v-9h-4v5l-6-6-16 16v1h4v10h10v-6h4v6h10v-10h4z" />
</g>
<g transform="translate(566 0)">
	<path d="M26.625 0h-21.25c-2.956 0-5.375 2.419-5.375 5.375v21.25c0 2.956 2.419 5.375 5.375 5.375h21.25c2.956 0 5.375-2.419 5.375-5.375v-21.25c0-2.956-2.419-5.375-5.375-5.375zM12 26h-4v-14h4v14zM10 10c-1.105 0-2-0.895-2-2s0.895-2 2-2 2 0.895 2 2-0.895 2-2 2zM26 26h-4v-8c0-1.105-0.895-2-2-2s-2 0.895-2 2v8h-4v-14h4v2.483c0.825-1.133 2.086-2.483 3.5-2.483 2.485 0 4.5 2.239 4.5 5v9z" />
</g>
<g transform="translate(614 0)">
	<path d="M30.063 21.625q-0.85 1.875-2.813 1.875h-4.688q-0.732 0-1.26-0.483t-0.586-1.187q-2.080 1.67-4.717 1.67-3.105 0-5.303-2.197t-2.197-5.303 2.197-5.303 5.303-2.197q2.9 0 5.068 1.963 0.293-0.088 0.557-0.088 0.791 0 1.333 0.557t0.542 1.318v7.5h3.076q0.674-1.875 0.674-3.75 0-3.047-1.509-5.64t-4.102-4.102-5.64-1.509-5.64 1.509-4.102 4.102-1.509 5.64 1.509 5.64 4.102 4.102 5.64 1.509h5.625q0.791 0 1.333 0.542t0.542 1.333-0.542 1.333-1.333 0.542h-5.625q-3.047 0-5.83-1.187t-4.79-3.193-3.193-4.79-1.187-5.83 1.187-5.83 3.193-4.79 4.79-3.193 5.83-1.187 5.83 1.187 4.79 3.193 3.193 4.79 1.187 5.83q0 1.816-0.19 3.076t-0.747 2.549zM16 12.25q-1.553 0-2.651 1.099t-1.099 2.651 1.099 2.651 2.651 1.099 2.651-1.099 1.099-2.651-1.099-2.651-2.651-1.099z" />
</g>
<g transform="translate(662 0)">
	<path d="M12.804 24.911l8.107-8.107q0.339-0.339 0.339-0.804t-0.339-0.804l-8.107-8.107q-0.339-0.339-0.804-0.339t-0.804 0.339l-1.821 1.821q-0.339 0.339-0.339 0.804t0.339 0.804l5.482 5.482-5.482 5.482q-0.339 0.339-0.339 0.804t0.339 0.804l1.821 1.821q0.339 0.339 0.804 0.339t0.804-0.339zM27.429 16q0 3.732-1.839 6.884t-4.991 4.991-6.884 1.839-6.884-1.839-4.991-4.991-1.839-6.884 1.839-6.884 4.991-4.991 6.884-1.839 6.884 1.839 4.991 4.991 1.839 6.884z" />
</g>
<g transform="translate(705 0)">
	<path d="M16.571 25.018v2.696l-12.625 0.018v-2.696zM20.875 18.839v12.518l-0.018 0.625v0.018l-20.857-0.018v-13.143h2.161v11.036h16.571v-11.036h2.143zM4.304 20.411l12.571 1.161-0.232 2.679-12.589-1.161zM5.518 14.768l12.196 3.268-0.696 2.607-12.196-3.268zM8.429 8.536l10.875 6.429-1.375 2.321-10.875-6.429zM14.857 2.625l7.107 10.446-2.214 1.518-7.125-10.429zM22.946 0l2.161 12.446-2.661 0.464-2.161-12.446z" />
</g>
</svg>
